<mxfile host="65bd71144e">
    <diagram id="DP1ay4x_F4U_SrnOaWZE" name="第 1 页">
        <mxGraphModel dx="1002" dy="1737" grid="1" gridSize="10" guides="1" tooltips="1" connect="1" arrows="1" fold="1" page="1" pageScale="1" pageWidth="827" pageHeight="1169" math="1" shadow="0">
            <root>
                <mxCell id="0"/>
                <mxCell id="1" parent="0"/>
                <mxCell id="2" value="&lt;h1&gt;&lt;font face=&quot;Times New Roman&quot;&gt;问题一&lt;/font&gt;&lt;/h1&gt;" style="rounded=0;whiteSpace=wrap;html=1;" parent="1" vertex="1">
                    <mxGeometry x="110" y="130" width="120" height="60" as="geometry"/>
                </mxCell>
                <mxCell id="4" style="edgeStyle=none;html=1;entryX=0.5;entryY=0;entryDx=0;entryDy=0;fontFamily=Times New Roman;fontSize=24;" parent="1" source="3" target="2" edge="1">
                    <mxGeometry relative="1" as="geometry">
                        <Array as="points">
                            <mxPoint x="440" y="90"/>
                            <mxPoint x="170" y="90"/>
                        </Array>
                    </mxGeometry>
                </mxCell>
                <mxCell id="9" style="edgeStyle=none;html=1;entryX=0.5;entryY=0;entryDx=0;entryDy=0;fontFamily=Times New Roman;fontSize=24;exitX=0.5;exitY=1;exitDx=0;exitDy=0;" parent="1" source="3" target="6" edge="1">
                    <mxGeometry relative="1" as="geometry">
                        <Array as="points">
                            <mxPoint x="440" y="90"/>
                            <mxPoint x="354" y="90"/>
                        </Array>
                    </mxGeometry>
                </mxCell>
                <mxCell id="3" value="背景" style="rounded=1;whiteSpace=wrap;html=1;fontFamily=Times New Roman;fillColor=#e1d5e7;strokeColor=#9673a6;labelBackgroundColor=none;labelBorderColor=none;fontSize=24;fontStyle=1" parent="1" vertex="1">
                    <mxGeometry x="380" y="-20" width="120" height="60" as="geometry"/>
                </mxCell>
                <mxCell id="6" value="&lt;h1&gt;&lt;font face=&quot;Times New Roman&quot;&gt;问题一&lt;/font&gt;&lt;/h1&gt;" style="rounded=0;whiteSpace=wrap;html=1;" parent="1" vertex="1">
                    <mxGeometry x="294" y="130" width="120" height="60" as="geometry"/>
                </mxCell>
                <mxCell id="7" value="&lt;h1&gt;&lt;font face=&quot;Times New Roman&quot;&gt;问题一&lt;/font&gt;&lt;/h1&gt;" style="rounded=0;whiteSpace=wrap;html=1;" parent="1" vertex="1">
                    <mxGeometry x="480" y="130" width="120" height="60" as="geometry"/>
                </mxCell>
                <mxCell id="8" value="&lt;h1&gt;&lt;font face=&quot;Times New Roman&quot;&gt;问题一&lt;/font&gt;&lt;/h1&gt;" style="rounded=0;whiteSpace=wrap;html=1;" parent="1" vertex="1">
                    <mxGeometry x="650" y="130" width="120" height="60" as="geometry"/>
                </mxCell>
            </root>
        </mxGraphModel>
    </diagram>
</mxfile>